<mxfile host="app.diagrams.net" modified="2023-12-23T18:40:04.069Z" agent="Mozilla/5.0 (Windows NT 10.0; Win64; x64) AppleWebKit/537.36 (KHTML, like Gecko) Chrome/120.0.0.0 Safari/537.36" etag="qlSI8AFM3lmwojwpUlyo" version="22.1.11" type="device">
  <diagram name="Sayfa -1" id="rB6OHBDw7W-9TVrrYJhU">
    <mxGraphModel dx="1674" dy="746" grid="1" gridSize="10" guides="1" tooltips="1" connect="1" arrows="1" fold="1" page="1" pageScale="1" pageWidth="827" pageHeight="1169" math="0" shadow="0">
      <root>
        <mxCell id="0" />
        <mxCell id="1" parent="0" />
        <mxCell id="kgq9xYH_fxQSGinOmm6P-26" style="edgeStyle=orthogonalEdgeStyle;rounded=0;orthogonalLoop=1;jettySize=auto;html=1;entryX=0.5;entryY=0;entryDx=0;entryDy=0;" edge="1" parent="1" source="kgq9xYH_fxQSGinOmm6P-1" target="kgq9xYH_fxQSGinOmm6P-2">
          <mxGeometry relative="1" as="geometry" />
        </mxCell>
        <mxCell id="kgq9xYH_fxQSGinOmm6P-1" value="Giriş" style="ellipse;whiteSpace=wrap;html=1;" vertex="1" parent="1">
          <mxGeometry x="280" y="30" width="120" height="80" as="geometry" />
        </mxCell>
        <mxCell id="kgq9xYH_fxQSGinOmm6P-2" value="sayi;" style="shape=parallelogram;perimeter=parallelogramPerimeter;whiteSpace=wrap;html=1;fixedSize=1;" vertex="1" parent="1">
          <mxGeometry x="280" y="150" width="120" height="60" as="geometry" />
        </mxCell>
        <mxCell id="kgq9xYH_fxQSGinOmm6P-11" style="edgeStyle=orthogonalEdgeStyle;rounded=0;orthogonalLoop=1;jettySize=auto;html=1;exitX=0.5;exitY=1;exitDx=0;exitDy=0;entryX=0.5;entryY=0;entryDx=0;entryDy=0;" edge="1" parent="1" source="kgq9xYH_fxQSGinOmm6P-3" target="kgq9xYH_fxQSGinOmm6P-4">
          <mxGeometry relative="1" as="geometry" />
        </mxCell>
        <mxCell id="kgq9xYH_fxQSGinOmm6P-3" value="tamBolenlerListesi = [&amp;nbsp; ]&lt;br&gt;bolen = 1;" style="rounded=0;whiteSpace=wrap;html=1;" vertex="1" parent="1">
          <mxGeometry x="244" y="270" width="170" height="60" as="geometry" />
        </mxCell>
        <mxCell id="kgq9xYH_fxQSGinOmm6P-12" style="edgeStyle=orthogonalEdgeStyle;rounded=0;orthogonalLoop=1;jettySize=auto;html=1;exitX=0.5;exitY=1;exitDx=0;exitDy=0;entryX=0.5;entryY=0;entryDx=0;entryDy=0;" edge="1" parent="1" source="kgq9xYH_fxQSGinOmm6P-4" target="kgq9xYH_fxQSGinOmm6P-5">
          <mxGeometry relative="1" as="geometry" />
        </mxCell>
        <mxCell id="kgq9xYH_fxQSGinOmm6P-21" value="EVET" style="edgeLabel;html=1;align=center;verticalAlign=middle;resizable=0;points=[];" vertex="1" connectable="0" parent="kgq9xYH_fxQSGinOmm6P-12">
          <mxGeometry x="0.1429" y="-2" relative="1" as="geometry">
            <mxPoint as="offset" />
          </mxGeometry>
        </mxCell>
        <mxCell id="kgq9xYH_fxQSGinOmm6P-22" style="edgeStyle=orthogonalEdgeStyle;rounded=0;orthogonalLoop=1;jettySize=auto;html=1;exitX=1;exitY=0.5;exitDx=0;exitDy=0;entryX=0.5;entryY=0;entryDx=0;entryDy=0;" edge="1" parent="1" source="kgq9xYH_fxQSGinOmm6P-4" target="kgq9xYH_fxQSGinOmm6P-8">
          <mxGeometry relative="1" as="geometry" />
        </mxCell>
        <mxCell id="kgq9xYH_fxQSGinOmm6P-24" value="HAYIR" style="edgeLabel;html=1;align=center;verticalAlign=middle;resizable=0;points=[];" vertex="1" connectable="0" parent="kgq9xYH_fxQSGinOmm6P-22">
          <mxGeometry x="-0.8504" y="-1" relative="1" as="geometry">
            <mxPoint as="offset" />
          </mxGeometry>
        </mxCell>
        <mxCell id="kgq9xYH_fxQSGinOmm6P-4" value="sayi &amp;gt;= bolen" style="rhombus;whiteSpace=wrap;html=1;" vertex="1" parent="1">
          <mxGeometry x="244" y="380" width="180" height="80" as="geometry" />
        </mxCell>
        <mxCell id="kgq9xYH_fxQSGinOmm6P-5" value="sayi % bolen === 0" style="rhombus;whiteSpace=wrap;html=1;" vertex="1" parent="1">
          <mxGeometry x="239" y="490" width="180" height="80" as="geometry" />
        </mxCell>
        <mxCell id="kgq9xYH_fxQSGinOmm6P-6" value="bolen elemanını tamBolenlerListesi adlı arraye son eleman olarak ekle" style="rounded=0;whiteSpace=wrap;html=1;" vertex="1" parent="1">
          <mxGeometry x="127" y="620" width="426" height="60" as="geometry" />
        </mxCell>
        <mxCell id="kgq9xYH_fxQSGinOmm6P-7" value="bolen ++;" style="rounded=0;whiteSpace=wrap;html=1;" vertex="1" parent="1">
          <mxGeometry x="269" y="720" width="120" height="60" as="geometry" />
        </mxCell>
        <mxCell id="kgq9xYH_fxQSGinOmm6P-23" style="edgeStyle=orthogonalEdgeStyle;rounded=0;orthogonalLoop=1;jettySize=auto;html=1;entryX=0.5;entryY=0;entryDx=0;entryDy=0;" edge="1" parent="1" source="kgq9xYH_fxQSGinOmm6P-8" target="kgq9xYH_fxQSGinOmm6P-9">
          <mxGeometry relative="1" as="geometry" />
        </mxCell>
        <mxCell id="kgq9xYH_fxQSGinOmm6P-8" value="tamBolenlerListesi" style="shape=document;whiteSpace=wrap;html=1;boundedLbl=1;" vertex="1" parent="1">
          <mxGeometry x="640" y="505" width="120" height="80" as="geometry" />
        </mxCell>
        <mxCell id="kgq9xYH_fxQSGinOmm6P-9" value="Bitiş" style="ellipse;whiteSpace=wrap;html=1;" vertex="1" parent="1">
          <mxGeometry x="640" y="630" width="120" height="80" as="geometry" />
        </mxCell>
        <mxCell id="kgq9xYH_fxQSGinOmm6P-10" style="edgeStyle=orthogonalEdgeStyle;rounded=0;orthogonalLoop=1;jettySize=auto;html=1;exitX=0.5;exitY=1;exitDx=0;exitDy=0;entryX=0.576;entryY=0;entryDx=0;entryDy=0;entryPerimeter=0;" edge="1" parent="1" source="kgq9xYH_fxQSGinOmm6P-2" target="kgq9xYH_fxQSGinOmm6P-3">
          <mxGeometry relative="1" as="geometry" />
        </mxCell>
        <mxCell id="kgq9xYH_fxQSGinOmm6P-13" style="edgeStyle=orthogonalEdgeStyle;rounded=0;orthogonalLoop=1;jettySize=auto;html=1;exitX=0.5;exitY=1;exitDx=0;exitDy=0;entryX=0.474;entryY=0.017;entryDx=0;entryDy=0;entryPerimeter=0;" edge="1" parent="1" source="kgq9xYH_fxQSGinOmm6P-5" target="kgq9xYH_fxQSGinOmm6P-6">
          <mxGeometry relative="1" as="geometry" />
        </mxCell>
        <mxCell id="kgq9xYH_fxQSGinOmm6P-17" value="EVET" style="edgeLabel;html=1;align=center;verticalAlign=middle;resizable=0;points=[];" vertex="1" connectable="0" parent="kgq9xYH_fxQSGinOmm6P-13">
          <mxGeometry x="-0.4131" y="-2" relative="1" as="geometry">
            <mxPoint as="offset" />
          </mxGeometry>
        </mxCell>
        <mxCell id="kgq9xYH_fxQSGinOmm6P-18" value="" style="endArrow=classic;html=1;rounded=0;entryX=-0.008;entryY=0.9;entryDx=0;entryDy=0;exitX=0;exitY=0.5;exitDx=0;exitDy=0;entryPerimeter=0;" edge="1" parent="1" source="kgq9xYH_fxQSGinOmm6P-5" target="kgq9xYH_fxQSGinOmm6P-7">
          <mxGeometry width="50" height="50" relative="1" as="geometry">
            <mxPoint x="80" y="610" as="sourcePoint" />
            <mxPoint x="50" y="610" as="targetPoint" />
            <Array as="points">
              <mxPoint x="80" y="580" />
              <mxPoint x="110" y="760" />
            </Array>
          </mxGeometry>
        </mxCell>
        <mxCell id="kgq9xYH_fxQSGinOmm6P-19" value="HAYIR" style="edgeLabel;html=1;align=center;verticalAlign=middle;resizable=0;points=[];" vertex="1" connectable="0" parent="kgq9xYH_fxQSGinOmm6P-18">
          <mxGeometry x="-0.8454" y="-2" relative="1" as="geometry">
            <mxPoint as="offset" />
          </mxGeometry>
        </mxCell>
        <mxCell id="kgq9xYH_fxQSGinOmm6P-20" style="edgeStyle=orthogonalEdgeStyle;rounded=0;orthogonalLoop=1;jettySize=auto;html=1;exitX=0.5;exitY=1;exitDx=0;exitDy=0;entryX=0.592;entryY=0.033;entryDx=0;entryDy=0;entryPerimeter=0;" edge="1" parent="1" source="kgq9xYH_fxQSGinOmm6P-6" target="kgq9xYH_fxQSGinOmm6P-7">
          <mxGeometry relative="1" as="geometry" />
        </mxCell>
        <mxCell id="kgq9xYH_fxQSGinOmm6P-25" value="" style="endArrow=classic;html=1;rounded=0;entryX=0;entryY=0.5;entryDx=0;entryDy=0;exitX=0.417;exitY=1.067;exitDx=0;exitDy=0;exitPerimeter=0;" edge="1" parent="1" source="kgq9xYH_fxQSGinOmm6P-7" target="kgq9xYH_fxQSGinOmm6P-4">
          <mxGeometry width="50" height="50" relative="1" as="geometry">
            <mxPoint x="90" y="860" as="sourcePoint" />
            <mxPoint x="100" y="450" as="targetPoint" />
            <Array as="points">
              <mxPoint x="50" y="860" />
              <mxPoint x="40" y="390" />
            </Array>
          </mxGeometry>
        </mxCell>
      </root>
    </mxGraphModel>
  </diagram>
</mxfile>
